<svg xmlns="http://www.w3.org/2000/svg" version="1.1" xmlns:xlink="http://www.w3.org/1999/xlink" xmlns:svgjs="http://svgjs.dev/svgjs" width="100%" height="100%" viewBox="0 0 1000 600"><rect width="1000" height="600" x="0" y="0" fill="white"/><g><rect width="333.3333333333333" height="333.3333333333333" rx="13.333333333333334" ry="13.333333333333334" y="247.35507707889792" fill="purple" transform="matrix(0.5552277002757453,0,0,0.5552277002757453,0,70.12365539334347)" x="225.13279724121094"/><path d="M303.63267192113483 489.02174903011297L303.63267192113483 489.02174903011297Q284.8229591737518 489.02174903011297 273.71627164672566 479.3183257874154Q262.5797274327989 469.61490254471784 259.0267816916266 450.20805605932264L259.0267816916266 450.20805605932264L278.642624985326 446.9536771871564Q280.52359626006427 459.10534875570386 287.15178075199924 465.94253005594305Q293.75010855703357 472.74985466928166 303.72224198183665 472.74985466928166L303.72224198183665 472.74985466928166Q314.6497893874591 472.74985466928166 320.9495503234874 465.25582625722905Q327.2493112595157 457.7617978451765 327.2493112595157 443.25144801148105L327.2493112595157 443.25144801148105L327.2493112595157 355.4130751498925L298.7958886432363 355.4130751498925L298.7958886432363 339.02175404145873L347.1935781091218 339.02175404145873L347.1935781091218 442.83345439487255Q347.1935781091218 464.3601256502108 335.5196135309841 476.6909373401619Q323.87550563974696 489.02174903011297 303.63267192113483 489.02174903011297ZM398.6067929519686 388.2554307405612L398.6067929519686 388.2554307405612L398.6067929519686 486.9317809470704L380.7823508723057 486.9317809470704L380.7823508723057 339.02175404145873L407.1159487186419 339.02175404145873L446.46706205364313 441.579473545047Q448.5868868235863 447.7896644203734 450.5275714721258 454.86569921581753Q452.4682561206654 461.9417340112616 453.0952465455781 465.10654282272606L453.0952465455781 465.10654282272606Q453.7222369704909 462.27015756716827 455.18521462862066 457.28409085476676Q456.64819228675043 452.29802414236525 458.14102663178085 447.670237672771Q459.6040042899106 443.04245120317677 460.2309947148234 441.579473545047L460.2309947148234 441.579473545047L498.86554756421003 339.02175404145873L524.5721549856335 339.02175404145873L524.5721549856335 486.9317809470704L506.5088594107657 486.9317809470704L506.5088594107657 388.2554307405612Q506.5088594107657 380.07469852979466 506.7775695928712 372.19253318803413Q507.04627977497665 364.34022453317425 507.46427339158515 356.78648274732046L507.46427339158515 356.78648274732046Q504.83688494433164 366.1316257472107 502.59763342678605 373.5062274116609Q500.32852522233986 380.91068576301166 498.2385571392973 386.1654626575187L498.2385571392973 386.1654626575187L460.0219979065192 486.9317809470704L445.9594983763328 486.9317809470704L407.23537546624436 386.1654626575187L397.89023246635406 356.78648274732046Q398.09922927465834 364.63879140218035 398.33808276986315 372.5209567439408Q398.6067929519686 380.40312208570134 398.6067929519686 388.2554307405612Z " fill="white" transform="matrix(0.5552277002757453,0,0,0.5552277002757453,0,70.12365539334347)"/><path d="M675.1924081728371 457.1934122411551L675.1924081728371 457.1934122411551Q661.1110493380073 457.1934122411551 652.7963422164888 449.92921919144135Q644.4592837317405 442.6650261417276 641.7994715073837 428.13664004230014L641.7994715073837 428.13664004230014L656.4843171494205 425.7003414502423Q657.8924530329034 434.7973462848069 662.8544556699387 439.91580846445135Q667.7941069437439 445.01191928086587 675.2594622625268 445.01191928086587L675.2594622625268 445.01191928086587Q683.4400612046659 445.01191928086587 688.1561988461723 439.4017271101639Q692.8723364876787 433.79153493946194 692.8723364876787 422.92877240973615L692.8723364876787 422.92877240973615L692.8723364876787 357.1710617874045L671.5714873295951 357.1710617874045L671.5714873295951 344.90016337419576L707.8030471252442 344.90016337419576L707.8030471252442 422.61585332451773Q707.8030471252442 438.7311862132673 699.0636641023578 447.9622992272112Q690.3466324427013 457.1934122411551 675.1924081728371 457.1934122411551ZM802.4834217670515 413.0494698621255L802.4834217670515 413.0494698621255Q802.4834217670515 435.3561303655541 792.6711733091305 446.28594698496954Q782.8365734879795 457.1934122411551 764.1284824645629 457.1934122411551L764.1284824645629 457.1934122411551Q745.509796894066 457.1934122411551 736.0104675213634 445.8389197203718Q726.4887867854309 434.4844271995885 726.4887867854309 413.0494698621255L726.4887867854309 413.0494698621255Q726.4887867854309 391.0333770806854 736.0328188845932 380.03650637158034Q745.5992023469855 369.03963566247523 764.5978610923906 369.03963566247523L764.5978610923906 369.03963566247523Q784.0882498288532 369.03963566247523 793.2970114795673 379.7682900128217Q802.4834217670515 390.4969443631681 802.4834217670515 413.0494698621255ZM787.6421165824055 413.0494698621255L787.6421165824055 413.0494698621255Q787.6421165824055 395.43659563697344 782.4118975866116 387.4571589639033Q777.1816785908178 379.4777222908331 764.8437260879194 379.4777222908331L764.8437260879194 379.4777222908331Q752.4387194953314 379.4777222908331 746.895581414319 387.61361850651247Q741.3524433333067 395.74951472219186 741.3524433333067 413.0494698621255L741.3524433333067 413.0494698621255Q741.3524433333067 429.85769501100157 746.8061759613994 438.3065103118994Q752.2599085894923 446.7553256127972 763.9720229219538 446.7553256127972L763.9720229219538 446.7553256127972Q776.7122999629902 446.7553256127972 782.1660325910829 438.57472667065804Q787.6421165824055 430.3941277285189 787.6421165824055 413.0494698621255ZM891.9782801395246 412.7141994136772L891.9782801395246 412.7141994136772Q891.9782801395246 434.9538058274161 884.1553030090637 446.0847847159006Q876.3546772418326 457.1934122411551 860.7087229809107 457.1934122411551L860.7087229809107 457.1934122411551Q851.052934065599 457.1934122411551 844.638092818621 453.7065995772925Q838.2456029348729 450.1974355502 834.222357553493 442.41916114619886L834.222357553493 442.41916114619886L834.0658980108838 442.41916114619886Q834.0658980108838 444.00610793552096 833.9094384682745 446.9788392450961Q833.7529789256654 449.9739219179011 833.596519383056 452.5219773261084Q833.4400598404469 455.0700327343157 833.2836002978377 455.6288168150629L833.2836002978377 455.6288168150629L819.604566001146 455.6288168150629Q819.8504309966747 453.50543730822346 819.9621878128243 449.14692147839526Q820.0739446289737 444.78840564856705 820.0739446289737 438.10534804283037L820.0739446289737 438.10534804283037L820.0739446289737 339.02175484473514L834.222357553493 339.02175484473514L834.222357553493 372.25823196757915Q834.222357553493 374.76158464932666 834.1553034638033 377.8013700485915Q834.0658980108838 380.81880408462644 833.9094384682745 384.28326538525914L833.9094384682745 384.28326538525914L834.222357553493 384.28326538525914Q838.1561974819533 376.10266644312 844.638092818621 372.57115105279763Q851.1199881552886 369.03963566247523 860.7087229809107 369.03963566247523L860.7087229809107 369.03963566247523Q876.8240558696602 369.03963566247523 884.4011680045925 379.8800468289711Q891.9782801395246 390.720457995467 891.9782801395246 412.7141994136772ZM877.1369749548787 413.20592940473466L877.1369749548787 413.20592940473466Q877.1369749548787 395.36954154728375 872.4208373133723 387.6583212329723Q867.7046996718658 379.9471009186608 857.0878021376687 379.9471009186608L857.0878021376687 379.9471009186608Q845.1521741729084 379.9471009186608 839.6984415448156 388.1276998607999Q834.222357553493 396.3082988029391 834.222357553493 414.05528120747044L834.222357553493 414.05528120747044Q834.222357553493 430.7964522666569 839.5643333654363 438.77588893972705Q844.9063091773796 446.7553256127972 856.9313425950596 446.7553256127972L856.9313425950596 446.7553256127972Q867.6152942189462 446.7553256127972 872.3761345869125 438.8429430294167Q877.1369749548787 430.9529118092661 877.1369749548787 413.20592940473466ZM970.006889175065 381.75756134028177L970.006889175065 381.75756134028177L970.006889175065 455.6288168150629L956.6631253268216 455.6288168150629L956.6631253268216 344.90016337419576L976.3770276955833 344.90016337419576L1005.8361244325761 421.6770960688624Q1007.4230712218982 426.3261796206792 1008.8759098318409 431.62345270616277Q1010.3287484417837 436.9207257916463 1010.7981270696113 439.28997029401444L1010.7981270696113 439.28997029401444Q1011.267505697439 437.1665907871751 1012.3627224957035 433.43391312778374Q1013.457939293968 429.7012354683924 1014.5755074554623 426.2367741677597Q1015.6707242537269 422.77231286712697 1016.1401028815546 421.6770960688624L1016.1401028815546 421.6770960688624L1045.06276690103 344.90016337419576L1064.3072906419643 344.90016337419576L1064.3072906419643 455.6288168150629L1050.7847158878817 455.6288168150629L1050.7847158878817 381.75756134028177Q1050.7847158878817 375.6332878152923 1050.9858781569505 369.7325279226018Q1051.1870404260196 363.8541193931411 1051.499959511238 358.19922449597937L1051.499959511238 358.19922449597937Q1049.5330395470078 365.1952011869344 1047.8343359415362 370.7159879047168Q1046.1579836992946 376.2591259857292 1044.5933882732024 380.19296591418953L1044.5933882732024 380.19296591418953L1015.9836433389454 455.6288168150629L1005.456151257668 455.6288168150629L976.4664331485028 380.19296591418953L969.4704564575476 358.19922449597937Q969.6269160001569 364.07763302544004 969.805726905996 369.97839291813057Q970.006889175065 375.8791528108211 970.006889175065 381.75756134028177ZM1110.0381798103158 457.1934122411551L1110.0381798103158 457.1934122411551Q1097.2308486795896 457.1934122411551 1090.793656069382 450.4433005457288Q1084.356463459174 443.6931888503025 1084.356463459174 431.8916690649214L1084.356463459174 431.8916690649214Q1084.356463459174 418.7043647592873 1093.0287923923706 411.6189826154126Q1101.7011213255673 404.5559518347679 1121.035050519421 404.0865732069402L1121.035050519421 404.0865732069402L1140.1454660809754 403.7736541217218L1140.1454660809754 399.124570569905Q1140.1454660809754 388.7535380312368 1135.7422475246876 384.28326538525914Q1131.3390289683994 379.79064137605155 1121.9067536853865 379.79064137605155L1121.9067536853865 379.79064137605155Q1112.4074243126838 379.79064137605155 1108.0712598460855 383.0315890443854Q1103.757446742717 386.2501853494893 1102.8857435767513 393.31321613013404L1102.8857435767513 393.31321613013404L1088.1114924817953 391.97213433634073Q1091.7324133250372 369.03963566247523 1122.219672770605 369.03963566247523L1122.219672770605 369.03963566247523Q1138.245600206435 369.03963566247523 1146.3367936956547 376.3708828018786Q1154.4279871848742 383.7244813045119 1154.4279871848742 397.6270292335025L1154.4279871848742 397.6270292335025L1154.4279871848742 434.26091356728955Q1154.4279871848742 440.54164663488825 1156.081988063886 443.7155402135324Q1157.7359889428976 446.9117851554064 1162.3850724947144 446.9117851554064L1162.3850724947144 446.9117851554064Q1164.5755060912434 446.9117851554064 1167.0118046833013 446.35300107465923L1167.0118046833013 446.35300107465923L1167.0118046833013 455.15943818723525Q1164.3296410957146 455.7852763576721 1161.5804234184384 456.0981954428905Q1158.8312057411622 456.411114528109 1156.081988063886 456.411114528109L1156.081988063886 456.411114528109Q1148.2366595701951 456.411114528109 1144.6604414534131 452.29846369380954Q1141.0842233366307 448.16346149628015 1140.614844708803 439.35702438370413L1140.614844708803 439.35702438370413L1140.1454660809754 439.35702438370413Q1134.7140848161125 449.1022187519355 1127.5169458560886 453.14781549654526Q1120.3421582592941 457.1934122411551 1110.0381798103158 457.1934122411551ZM1140.1454660809754 420.67128472351743L1140.1454660809754 413.6753080325624L1124.655971362663 413.9882271177808Q1114.7543174518223 414.05528120747044 1109.5688011824882 416.02220117170066L1109.5688011824882 416.02220117170066Q1104.383284913154 417.89971568301127 1101.6340672358779 421.83355561147164Q1098.8848495586017 425.767395539932 1098.8848495586017 432.1375340604502L1098.8848495586017 432.1375340604502Q1098.8848495586017 439.0441052984857 1102.617527217993 442.82148568433684Q1106.3502048773842 446.59886607018797 1113.2567761154196 446.59886607018797L1113.2567761154196 446.59886607018797Q1121.1244559723405 446.59886607018797 1127.0922699547205 443.0449993166357L1127.0922699547205 443.0449993166357Q1133.1494893900203 439.51348392631337 1136.636302053883 433.3445076748642Q1140.1454660809754 427.17553142341495 1140.1454660809754 420.67128472351743L1140.1454660809754 420.67128472351743ZM1192.313547859535 406.36641225638886L1192.313547859535 406.36641225638886L1192.313547859535 455.6288168150629L1178.1651349350154 455.6288168150629L1178.1651349350154 388.7535380312368Q1178.1651349350154 381.2881827124541 1178.053378118866 376.7732073400166Q1177.9416213027166 372.25823196757915 1177.6957563071878 370.6042310885674L1177.6957563071878 370.6042310885674L1191.0618715186613 370.6042310885674Q1191.2183310612704 372.10177242496997 1191.3300878774198 374.38161147441855Q1191.4418446935692 376.6614505238672 1191.531250146489 379.41066820114344Q1191.5983042361786 382.15988587841974 1191.687709689098 385.13261718799487L1191.687709689098 385.13261718799487L1191.911223321397 385.13261718799487Q1196.7838205055127 376.3485314386487 1203.1986617524908 372.68290786894704Q1209.5911516362387 369.03963566247523 1219.1128323721714 369.03963566247523L1219.1128323721714 369.03963566247523Q1233.1047857540814 369.03963566247523 1239.586681090749 376.1920718960395Q1246.0685764274167 383.3445081296038 1246.0685764274167 398.9681110272958L1246.0685764274167 398.9681110272958L1246.0685764274167 455.6288168150629L1231.8307580499777 455.6288168150629L1231.8307580499777 401.7173287045721Q1231.8307580499777 389.5358357442829 1227.9192694847472 384.75264401308675Q1223.9854295562868 379.9471009186608 1214.307289277745 379.9471009186608L1214.307289277745 379.9471009186608Q1204.092716281686 379.9471009186608 1198.2143077522255 386.94307760961584Q1192.313547859535 393.9390543005709 1192.313547859535 406.36641225638886ZM1289.0502479184918 457.1934122411551L1289.0502479184918 457.1934122411551Q1276.242916787766 457.1934122411551 1269.783372814328 450.4433005457288Q1263.3461802041204 443.6931888503025 1263.3461802041204 431.8916690649214L1263.3461802041204 431.8916690649214Q1263.3461802041204 418.7043647592873 1272.040860500547 411.6189826154126Q1280.7131894337438 404.5559518347679 1300.047118627597 404.0865732069402L1300.047118627597 404.0865732069402L1319.135182825922 403.7736541217218L1319.135182825922 399.124570569905Q1319.135182825922 388.7535380312368 1314.7319642696336 384.28326538525914Q1310.3287457133458 379.79064137605155 1300.9188217935628 379.79064137605155L1300.9188217935628 379.79064137605155Q1291.3971410576303 379.79064137605155 1287.083327954262 383.0315890443854Q1282.747163487663 386.2501853494893 1281.8978116849278 393.31321613013404L1281.8978116849278 393.31321613013404L1267.1235605899712 391.97213433634073Q1270.7444814332132 369.03963566247523 1301.231740878781 369.03963566247523L1301.231740878781 369.03963566247523Q1317.257668314611 369.03963566247523 1325.3488618038307 376.3708828018786Q1333.4400552930504 383.7244813045119 1333.4400552930504 397.6270292335025L1333.4400552930504 397.6270292335025L1333.4400552930504 434.26091356728955Q1333.4400552930504 440.54164663488825 1335.094056172062 443.7155402135324Q1336.7480570510736 446.9117851554064 1341.3747892396607 446.9117851554064L1341.3747892396607 446.9117851554064Q1343.5875741994194 446.9117851554064 1346.0238727914773 446.35300107465923L1346.0238727914773 446.35300107465923L1346.0238727914773 455.15943818723525Q1343.341709203891 455.7852763576721 1340.5924915266144 456.0981954428905Q1337.8432738493382 456.411114528109 1335.094056172062 456.411114528109L1335.094056172062 456.411114528109Q1327.2263763151411 456.411114528109 1323.6501581983591 452.29846369380954Q1320.0739400815771 448.16346149628015 1319.6045614537495 439.35702438370413L1319.6045614537495 439.35702438370413L1319.135182825922 439.35702438370413Q1313.7261529242885 449.1022187519355 1306.5290139642645 453.14781549654526Q1299.3318750042406 457.1934122411551 1289.0502479184918 457.1934122411551ZM1319.135182825922 420.67128472351743L1319.135182825922 413.6753080325624L1303.668039470839 413.9882271177808Q1293.7663855599983 414.05528120747044 1288.5808692906642 416.02220117170066L1288.5808692906642 416.02220117170066Q1283.39535302133 417.89971568301127 1280.6461353440538 421.83355561147164Q1277.8745663035477 425.767395539932 1277.8745663035477 432.1375340604502L1277.8745663035477 432.1375340604502Q1277.8745663035477 439.0441052984857 1281.607243962939 442.82148568433684Q1285.3399216223304 446.59886607018797 1292.268844223596 446.59886607018797L1292.268844223596 446.59886607018797Q1300.114172717287 446.59886607018797 1306.1043380628969 443.0449993166357L1306.1043380628969 443.0449993166357Q1312.1392061349668 439.51348392631337 1315.6483701620593 433.3445076748642Q1319.135182825922 427.17553142341495 1319.135182825922 420.67128472351743L1319.135182825922 420.67128472351743ZM1389.0725983722425 489.02175348051617L1389.0725983722425 489.02175348051617Q1375.1700504432517 489.02175348051617 1366.9223974114232 483.5680208524234Q1358.6747443795941 478.09193686110075 1356.305499877226 468.03382340765097L1356.305499877226 468.03382340765097L1370.5209668914351 465.9998493537311Q1371.951454138148 471.90060924642165 1376.7793485958039 475.0745028250658Q1381.6072430534598 478.27074776693985 1389.4749229103802 478.27074776693985L1389.4749229103802 478.27074776693985Q1400.0024149916578 478.27074776693985 1405.2996880771414 472.05706878903084Q1410.596961162625 465.8433898111219 1410.596961162625 453.50543730822346L1410.596961162625 453.50543730822346L1410.596961162625 439.8264030115318L1410.4405016200155 439.8264030115318Q1406.4396076018659 448.00700195367097 1399.4436309109108 452.1420041512003Q1392.4476542199557 456.25465498549977 1383.1047843898625 456.25465498549977L1383.1047843898625 456.25465498549977Q1367.4588301289402 456.25465498549977 1360.127582989537 445.88362244683157Q1352.7739844869036 435.51258990816336 1352.7739844869036 413.27298349442435L1352.7739844869036 413.27298349442435Q1352.7739844869036 390.720457995467 1360.6640157070544 379.9918036451205Q1368.5763982904348 369.2631492947741 1384.6693798159542 369.2631492947741L1384.6693798159542 369.2631492947741Q1393.721681924059 369.2631492947741 1400.360036803336 373.39815149230344Q1406.998391682613 377.5108023266029 1410.596961162625 385.13261718799487L1410.596961162625 385.13261718799487L1410.7534207052342 385.13261718799487Q1410.7534207052342 383.5680217619027 1410.9098802478436 380.2376686406493Q1411.0663397904525 376.88496415616606 1411.3122047859817 373.9122328465909Q1411.55806978151 370.91715017378584 1411.7145293241194 370.6042310885674L1411.7145293241194 370.6042310885674L1425.1476986252826 370.6042310885674Q1424.6783199974545 374.8509901022462 1424.6783199974545 388.21710531371946L1424.6783199974545 388.21710531371946L1424.6783199974545 453.19251822300504Q1424.6783199974545 471.11831153337556 1415.782477431959 480.0588568253309Q1406.9089862296935 489.02175348051617 1389.0725983722425 489.02175348051617ZM1410.596961162625 413.11652395181517L1410.596961162625 413.11652395181517Q1410.596961162625 397.6270292335025 1404.2715253685667 388.70883530477704Q1397.946089574508 379.79064137605155 1388.1338411165873 379.79064137605155L1388.1338411165873 379.79064137605155Q1377.2934299500914 379.79064137605155 1372.331427313056 387.6583212329723Q1367.3917760392508 395.526001089893 1367.3917760392508 413.11652395181517L1367.3917760392508 413.11652395181517Q1367.3917760392508 430.572938634358 1372.0185082278379 438.1947534957499Q1376.6675917796545 445.8165683571419 1387.8879761210585 445.8165683571419L1387.8879761210585 445.8165683571419Q1397.946089574508 445.8165683571419 1404.2715253685667 437.05483397102563Q1410.596961162625 428.2930995849094 1410.596961162625 413.11652395181517ZM1517.8611533028595 416.1116066246202L1457.1995534969421 416.1116066246202Q1457.1995534969421 430.7293981769672 1463.256772932242 438.6641321235776Q1469.313992367542 446.59886607018797 1480.9367012470836 446.59886607018797L1480.9367012470836 446.59886607018797Q1490.123111534568 446.59886607018797 1495.6662496155802 442.8885397740265Q1501.2093876965926 439.2005648410949 1503.1763076608229 433.54566994393315L1503.1763076608229 433.54566994393315L1515.581314253411 437.07718533425555Q1507.9594993920189 457.1934122411551 1480.9367012470836 457.1934122411551L1480.9367012470836 457.1934122411551Q1462.072150681058 457.1934122411551 1452.2151994966773 445.9730278997511Q1442.3582483122966 434.7302921951173 1442.3582483122966 412.55773987106795L1442.3582483122966 412.55773987106795Q1442.3582483122966 391.50275570851306 1452.2151994966773 380.2823713671091Q1462.072150681058 369.03963566247523 1480.3779171663366 369.03963566247523L1480.3779171663366 369.03963566247523Q1499.1530622794428 369.03963566247523 1508.518283472766 380.34942545679877Q1517.8611533028595 391.6592152511223 1517.8611533028595 414.2117407500797L1517.8611533028595 414.2117407500797L1517.8611533028595 416.1116066246202ZM1457.3560130395515 405.2488440948944L1503.2433617505123 405.2488440948944Q1502.0810908625583 391.8156747937315 1496.4038446021666 385.6466985422823Q1490.7489497050049 379.4777222908331 1480.1544035340378 379.4777222908331L1480.1544035340378 379.4777222908331Q1469.850425085059 379.4777222908331 1463.8379083762195 386.36194216563877Q1457.825391667379 393.24616204044435 1457.3560130395515 405.2488440948944L1457.3560130395515 405.2488440948944ZM1550.3153327126577 411.3060635301942L1550.3153327126577 411.3060635301942L1550.3153327126577 455.6288168150629L1536.166919788138 455.6288168150629L1536.166919788138 390.40753891024855Q1536.166919788138 385.9372662642709 1536.0551629719887 380.9752636272356Q1535.9434061558393 376.0356123534303 1535.6975411603105 370.6042310885674L1535.6975411603105 370.6042310885674L1549.0636563717837 370.6042310885674Q1549.220115914393 374.22515193180936 1549.3318727305425 377.13082915169485Q1549.4436295466915 380.03650637158034 1549.5330349996113 382.2045886048795Q1549.6224404525308 384.3503194749488 1549.6447918157608 385.80315808489155Q1549.6894945422207 387.25599669483427 1549.6894945422207 387.9712403181907L1549.6894945422207 387.9712403181907L1550.002413627439 387.9712403181907Q1552.371658129807 380.2823713671091 1555.187929896773 376.0356123534303L1555.187929896773 376.0356123534303Q1557.9371475740493 372.10177242496997 1561.4686629643718 370.55952836210764Q1565.0225297179238 369.03963566247523 1570.208045987258 369.03963566247523L1570.208045987258 369.03963566247523Q1573.1137232071435 369.03963566247523 1575.9299949741096 369.8219333755213L1575.9299949741096 369.8219333755213L1575.9299949741096 382.7857240488566Q1573.2701827497528 382.0034263358105 1568.397585565637 382.0034263358105L1568.397585565637 382.0034263358105Q1559.591148453061 382.0034263358105 1554.9644162644743 389.5805384707427Q1550.3153327126577 397.15765060567486 1550.3153327126577 411.3060635301942Z " fill="blue" transform="matrix(0.5552277002757453,0,0,0.5552277002757453,0,70.12365539334347)"/></g></svg>